<mxfile host="app.diagrams.net" modified="2022-02-15T03:19:46.232Z" agent="5.0 (Windows NT 10.0; Win64; x64) AppleWebKit/537.36 (KHTML, like Gecko) Chrome/98.0.4758.80 Safari/537.36 Edg/98.0.1108.50" etag="8JYogBZM4AP45Ck02l1z" version="16.5.6" type="github">
  <diagram id="eyej5u4W_qLAlVck2tkH" name="Page-1">
    <mxGraphModel dx="484" dy="268" grid="1" gridSize="10" guides="1" tooltips="1" connect="1" arrows="1" fold="1" page="1" pageScale="1" pageWidth="2339" pageHeight="3300" math="0" shadow="0">
      <root>
        <mxCell id="0" />
        <mxCell id="1" parent="0" />
        <mxCell id="X1Mo2VDanx9A2qj2zD5Y-115" value="" style="group;fillColor=#A6FFF3;strokeColor=#FFC875;" vertex="1" connectable="0" parent="1">
          <mxGeometry x="237" y="235" width="120" height="120" as="geometry" />
        </mxCell>
        <mxCell id="X1Mo2VDanx9A2qj2zD5Y-116" value="" style="whiteSpace=wrap;html=1;aspect=fixed;fillColor=#FFC875;strokeColor=#A6FFF3;" vertex="1" parent="X1Mo2VDanx9A2qj2zD5Y-115">
          <mxGeometry width="120" height="120" as="geometry" />
        </mxCell>
        <mxCell id="X1Mo2VDanx9A2qj2zD5Y-117" value="" style="whiteSpace=wrap;html=1;aspect=fixed;strokeColor=#000000;fillColor=#FFFFFF;" vertex="1" parent="X1Mo2VDanx9A2qj2zD5Y-115">
          <mxGeometry x="10" y="10" width="100" height="100" as="geometry" />
        </mxCell>
        <mxCell id="X1Mo2VDanx9A2qj2zD5Y-118" value="" style="ellipse;whiteSpace=wrap;html=1;aspect=fixed;strokeColor=#000000;fillColor=#FFFFFF;" vertex="1" parent="X1Mo2VDanx9A2qj2zD5Y-115">
          <mxGeometry x="20" y="20" width="80" height="80" as="geometry" />
        </mxCell>
        <mxCell id="X1Mo2VDanx9A2qj2zD5Y-119" value="" style="whiteSpace=wrap;html=1;shape=mxgraph.basic.pentagon;fillColor=#666666;strokeColor=#000000;" vertex="1" parent="X1Mo2VDanx9A2qj2zD5Y-115">
          <mxGeometry x="40" y="40" width="40" height="36" as="geometry" />
        </mxCell>
        <mxCell id="X1Mo2VDanx9A2qj2zD5Y-120" value="" style="group;fillColor=#A6FFF3;strokeColor=#000000;" vertex="1" connectable="0" parent="1">
          <mxGeometry x="227" y="225" width="120" height="120" as="geometry" />
        </mxCell>
        <mxCell id="X1Mo2VDanx9A2qj2zD5Y-121" value="" style="whiteSpace=wrap;html=1;aspect=fixed;fillColor=#FFC875;strokeColor=#FFC875;" vertex="1" parent="X1Mo2VDanx9A2qj2zD5Y-120">
          <mxGeometry width="120" height="120" as="geometry" />
        </mxCell>
        <mxCell id="X1Mo2VDanx9A2qj2zD5Y-122" value="" style="whiteSpace=wrap;html=1;aspect=fixed;strokeColor=#000000;fillColor=#FFFFFF;" vertex="1" parent="X1Mo2VDanx9A2qj2zD5Y-120">
          <mxGeometry x="10" y="10" width="100" height="100" as="geometry" />
        </mxCell>
        <mxCell id="X1Mo2VDanx9A2qj2zD5Y-123" value="" style="ellipse;whiteSpace=wrap;html=1;aspect=fixed;strokeColor=#000000;fillColor=#FFFFFF;" vertex="1" parent="X1Mo2VDanx9A2qj2zD5Y-120">
          <mxGeometry x="20" y="20" width="80" height="80" as="geometry" />
        </mxCell>
        <mxCell id="X1Mo2VDanx9A2qj2zD5Y-124" value="" style="whiteSpace=wrap;html=1;shape=mxgraph.basic.pentagon;fillColor=#666666;strokeColor=#000000;" vertex="1" parent="X1Mo2VDanx9A2qj2zD5Y-120">
          <mxGeometry x="40" y="40" width="40" height="36" as="geometry" />
        </mxCell>
        <mxCell id="X1Mo2VDanx9A2qj2zD5Y-125" value="" style="group;fillColor=#A6FFF3;strokeColor=#FFC875;" vertex="1" connectable="0" parent="1">
          <mxGeometry x="217" y="215" width="120" height="120" as="geometry" />
        </mxCell>
        <mxCell id="X1Mo2VDanx9A2qj2zD5Y-126" value="" style="whiteSpace=wrap;html=1;aspect=fixed;fillColor=#FFC875;strokeColor=#FFC875;" vertex="1" parent="X1Mo2VDanx9A2qj2zD5Y-125">
          <mxGeometry width="120" height="120" as="geometry" />
        </mxCell>
        <mxCell id="X1Mo2VDanx9A2qj2zD5Y-127" value="" style="whiteSpace=wrap;html=1;aspect=fixed;strokeColor=#000000;fillColor=#FFFFFF;" vertex="1" parent="X1Mo2VDanx9A2qj2zD5Y-125">
          <mxGeometry x="10" y="10" width="100" height="100" as="geometry" />
        </mxCell>
        <mxCell id="X1Mo2VDanx9A2qj2zD5Y-128" value="" style="ellipse;whiteSpace=wrap;html=1;aspect=fixed;strokeColor=#000000;fillColor=#FFFFFF;" vertex="1" parent="X1Mo2VDanx9A2qj2zD5Y-125">
          <mxGeometry x="20" y="20" width="80" height="80" as="geometry" />
        </mxCell>
        <mxCell id="X1Mo2VDanx9A2qj2zD5Y-129" value="" style="whiteSpace=wrap;html=1;shape=mxgraph.basic.pentagon;fillColor=#666666;strokeColor=#000000;" vertex="1" parent="X1Mo2VDanx9A2qj2zD5Y-125">
          <mxGeometry x="40" y="40" width="40" height="36" as="geometry" />
        </mxCell>
        <mxCell id="X1Mo2VDanx9A2qj2zD5Y-130" value="" style="group;fillColor=#A6FFF3;strokeColor=#000000;" vertex="1" connectable="0" parent="X1Mo2VDanx9A2qj2zD5Y-125">
          <mxGeometry x="-20" y="-20" width="120" height="120" as="geometry" />
        </mxCell>
        <mxCell id="X1Mo2VDanx9A2qj2zD5Y-131" value="" style="whiteSpace=wrap;html=1;aspect=fixed;fillColor=#8CFFEC;strokeColor=#A6FFF3;" vertex="1" parent="X1Mo2VDanx9A2qj2zD5Y-130">
          <mxGeometry width="120" height="120" as="geometry" />
        </mxCell>
        <mxCell id="X1Mo2VDanx9A2qj2zD5Y-132" value="" style="whiteSpace=wrap;html=1;aspect=fixed;strokeColor=#000000;fillColor=#FFFFFF;" vertex="1" parent="X1Mo2VDanx9A2qj2zD5Y-130">
          <mxGeometry x="10" y="10" width="100" height="100" as="geometry" />
        </mxCell>
        <mxCell id="X1Mo2VDanx9A2qj2zD5Y-133" value="" style="ellipse;whiteSpace=wrap;html=1;aspect=fixed;strokeColor=#000000;fillColor=#FFFFFF;" vertex="1" parent="X1Mo2VDanx9A2qj2zD5Y-130">
          <mxGeometry x="20" y="20" width="80" height="80" as="geometry" />
        </mxCell>
        <mxCell id="X1Mo2VDanx9A2qj2zD5Y-134" value="" style="whiteSpace=wrap;html=1;shape=mxgraph.basic.pentagon;fillColor=#666666;strokeColor=#000000;" vertex="1" parent="X1Mo2VDanx9A2qj2zD5Y-130">
          <mxGeometry x="40" y="40" width="40" height="36" as="geometry" />
        </mxCell>
        <mxCell id="X1Mo2VDanx9A2qj2zD5Y-135" value="" style="group;fillColor=#A6FFF3;strokeColor=#000000;" vertex="1" connectable="0" parent="X1Mo2VDanx9A2qj2zD5Y-125">
          <mxGeometry x="-30" y="-30" width="120" height="120" as="geometry" />
        </mxCell>
        <mxCell id="X1Mo2VDanx9A2qj2zD5Y-136" value="" style="whiteSpace=wrap;html=1;aspect=fixed;fillColor=#8CFFEC;strokeColor=#A6FFF3;" vertex="1" parent="X1Mo2VDanx9A2qj2zD5Y-135">
          <mxGeometry width="120" height="120" as="geometry" />
        </mxCell>
        <mxCell id="X1Mo2VDanx9A2qj2zD5Y-137" value="" style="whiteSpace=wrap;html=1;aspect=fixed;strokeColor=#000000;fillColor=#FFFFFF;" vertex="1" parent="X1Mo2VDanx9A2qj2zD5Y-135">
          <mxGeometry x="10" y="10" width="100" height="100" as="geometry" />
        </mxCell>
        <mxCell id="X1Mo2VDanx9A2qj2zD5Y-138" value="" style="ellipse;whiteSpace=wrap;html=1;aspect=fixed;strokeColor=#000000;fillColor=#FFFFFF;" vertex="1" parent="X1Mo2VDanx9A2qj2zD5Y-135">
          <mxGeometry x="20" y="20" width="80" height="80" as="geometry" />
        </mxCell>
        <mxCell id="X1Mo2VDanx9A2qj2zD5Y-139" value="" style="whiteSpace=wrap;html=1;shape=mxgraph.basic.pentagon;fillColor=#666666;strokeColor=#000000;" vertex="1" parent="X1Mo2VDanx9A2qj2zD5Y-135">
          <mxGeometry x="40" y="40" width="40" height="36" as="geometry" />
        </mxCell>
        <mxCell id="X1Mo2VDanx9A2qj2zD5Y-140" value="" style="group;fillColor=#A6FFF3;strokeColor=#000000;" vertex="1" connectable="0" parent="X1Mo2VDanx9A2qj2zD5Y-125">
          <mxGeometry x="-40" y="-40" width="120" height="120" as="geometry" />
        </mxCell>
        <mxCell id="X1Mo2VDanx9A2qj2zD5Y-141" value="" style="whiteSpace=wrap;html=1;aspect=fixed;fillColor=#8CFFEC;strokeColor=#A6FFF3;" vertex="1" parent="X1Mo2VDanx9A2qj2zD5Y-140">
          <mxGeometry width="120" height="120" as="geometry" />
        </mxCell>
        <mxCell id="X1Mo2VDanx9A2qj2zD5Y-142" value="" style="whiteSpace=wrap;html=1;aspect=fixed;strokeColor=#000000;fillColor=#FFFFFF;" vertex="1" parent="X1Mo2VDanx9A2qj2zD5Y-140">
          <mxGeometry x="10" y="10" width="100" height="100" as="geometry" />
        </mxCell>
        <mxCell id="X1Mo2VDanx9A2qj2zD5Y-143" value="" style="ellipse;whiteSpace=wrap;html=1;aspect=fixed;strokeColor=#000000;fillColor=#FFFFFF;" vertex="1" parent="X1Mo2VDanx9A2qj2zD5Y-140">
          <mxGeometry x="20" y="20" width="80" height="80" as="geometry" />
        </mxCell>
        <mxCell id="X1Mo2VDanx9A2qj2zD5Y-144" value="" style="whiteSpace=wrap;html=1;shape=mxgraph.basic.pentagon;fillColor=#666666;strokeColor=#000000;" vertex="1" parent="X1Mo2VDanx9A2qj2zD5Y-140">
          <mxGeometry x="40" y="40" width="40" height="36" as="geometry" />
        </mxCell>
        <mxCell id="X1Mo2VDanx9A2qj2zD5Y-145" value="" style="endArrow=none;dashed=1;html=1;dashPattern=1 3;strokeWidth=2;rounded=0;" edge="1" parent="1">
          <mxGeometry width="50" height="50" relative="1" as="geometry">
            <mxPoint x="137" y="460" as="sourcePoint" />
            <mxPoint x="137" y="40" as="targetPoint" />
          </mxGeometry>
        </mxCell>
        <mxCell id="X1Mo2VDanx9A2qj2zD5Y-146" value="&lt;font style=&quot;font-size: 20px&quot;&gt;Stage:&lt;/font&gt;" style="text;html=1;strokeColor=none;fillColor=none;align=center;verticalAlign=middle;whiteSpace=wrap;rounded=0;" vertex="1" parent="1">
          <mxGeometry x="67" y="100" width="60" height="30" as="geometry" />
        </mxCell>
        <mxCell id="X1Mo2VDanx9A2qj2zD5Y-148" value="Input Size:" style="text;html=1;strokeColor=none;fillColor=none;align=center;verticalAlign=middle;whiteSpace=wrap;rounded=0;fontSize=20;" vertex="1" parent="1">
          <mxGeometry x="24" y="372" width="100" height="30" as="geometry" />
        </mxCell>
        <mxCell id="X1Mo2VDanx9A2qj2zD5Y-149" value="&lt;font style=&quot;font-size: 20px&quot;&gt;Input frame&lt;/font&gt;" style="text;html=1;strokeColor=none;fillColor=none;align=center;verticalAlign=middle;whiteSpace=wrap;rounded=0;" vertex="1" parent="1">
          <mxGeometry x="190" y="100" width="120" height="30" as="geometry" />
        </mxCell>
        <mxCell id="X1Mo2VDanx9A2qj2zD5Y-150" value="&lt;font style=&quot;font-size: 15px&quot;&gt;&lt;font style=&quot;font-size: 15px&quot;&gt;8 content, 8 choices&lt;/font&gt;&amp;nbsp;&lt;/font&gt;" style="text;html=1;strokeColor=none;fillColor=none;align=center;verticalAlign=middle;whiteSpace=wrap;rounded=0;fontSize=20;" vertex="1" parent="1">
          <mxGeometry x="177" y="130" width="160" height="30" as="geometry" />
        </mxCell>
        <mxCell id="X1Mo2VDanx9A2qj2zD5Y-151" value="&lt;font style=&quot;font-size: 20px&quot;&gt;(b,16,z&lt;sub&gt;fr&lt;/sub&gt;)&lt;/font&gt;" style="text;html=1;strokeColor=none;fillColor=none;align=center;verticalAlign=middle;whiteSpace=wrap;rounded=0;fontSize=15;" vertex="1" parent="1">
          <mxGeometry x="223" y="372" width="60" height="30" as="geometry" />
        </mxCell>
        <mxCell id="X1Mo2VDanx9A2qj2zD5Y-153" value="" style="endArrow=classic;html=1;rounded=0;fontSize=20;" edge="1" parent="1">
          <mxGeometry width="50" height="50" relative="1" as="geometry">
            <mxPoint x="371" y="263" as="sourcePoint" />
            <mxPoint x="426" y="263" as="targetPoint" />
          </mxGeometry>
        </mxCell>
        <mxCell id="X1Mo2VDanx9A2qj2zD5Y-313" value="" style="group;fillColor=#A6FFF3;strokeColor=#000000;" vertex="1" connectable="0" parent="1">
          <mxGeometry x="442" y="190" width="60" height="60" as="geometry" />
        </mxCell>
        <mxCell id="X1Mo2VDanx9A2qj2zD5Y-314" value="" style="whiteSpace=wrap;html=1;aspect=fixed;fillColor=#8CFFEC;strokeColor=#A6FFF3;" vertex="1" parent="X1Mo2VDanx9A2qj2zD5Y-313">
          <mxGeometry width="60" height="60" as="geometry" />
        </mxCell>
        <mxCell id="X1Mo2VDanx9A2qj2zD5Y-315" value="" style="whiteSpace=wrap;html=1;aspect=fixed;strokeColor=#000000;fillColor=#FFFFFF;" vertex="1" parent="X1Mo2VDanx9A2qj2zD5Y-313">
          <mxGeometry x="5" y="5" width="50" height="50" as="geometry" />
        </mxCell>
        <mxCell id="X1Mo2VDanx9A2qj2zD5Y-316" value="" style="ellipse;whiteSpace=wrap;html=1;aspect=fixed;strokeColor=#000000;fillColor=#FFFFFF;" vertex="1" parent="X1Mo2VDanx9A2qj2zD5Y-313">
          <mxGeometry x="10" y="10" width="40" height="40" as="geometry" />
        </mxCell>
        <mxCell id="X1Mo2VDanx9A2qj2zD5Y-317" value="" style="whiteSpace=wrap;html=1;shape=mxgraph.basic.pentagon;fillColor=#666666;strokeColor=#000000;" vertex="1" parent="X1Mo2VDanx9A2qj2zD5Y-313">
          <mxGeometry x="20" y="20" width="20" height="18" as="geometry" />
        </mxCell>
        <mxCell id="X1Mo2VDanx9A2qj2zD5Y-318" value="&lt;font style=&quot;font-size: 30px&quot;&gt;...&lt;/font&gt;" style="text;html=1;strokeColor=none;fillColor=none;align=center;verticalAlign=middle;whiteSpace=wrap;rounded=0;fontSize=20;" vertex="1" parent="1">
          <mxGeometry x="497" y="201" width="40" height="20" as="geometry" />
        </mxCell>
        <mxCell id="X1Mo2VDanx9A2qj2zD5Y-319" value="" style="group;fillColor=#A6FFF3;strokeColor=#000000;" vertex="1" connectable="0" parent="1">
          <mxGeometry x="531" y="191" width="60" height="60" as="geometry" />
        </mxCell>
        <mxCell id="X1Mo2VDanx9A2qj2zD5Y-320" value="" style="whiteSpace=wrap;html=1;aspect=fixed;fillColor=#8CFFEC;strokeColor=#A6FFF3;" vertex="1" parent="X1Mo2VDanx9A2qj2zD5Y-319">
          <mxGeometry width="60" height="60" as="geometry" />
        </mxCell>
        <mxCell id="X1Mo2VDanx9A2qj2zD5Y-321" value="" style="whiteSpace=wrap;html=1;aspect=fixed;strokeColor=#000000;fillColor=#FFFFFF;" vertex="1" parent="X1Mo2VDanx9A2qj2zD5Y-319">
          <mxGeometry x="5" y="5" width="50" height="50" as="geometry" />
        </mxCell>
        <mxCell id="X1Mo2VDanx9A2qj2zD5Y-322" value="" style="ellipse;whiteSpace=wrap;html=1;aspect=fixed;strokeColor=#000000;fillColor=#FFFFFF;" vertex="1" parent="X1Mo2VDanx9A2qj2zD5Y-319">
          <mxGeometry x="10" y="10" width="40" height="40" as="geometry" />
        </mxCell>
        <mxCell id="X1Mo2VDanx9A2qj2zD5Y-323" value="" style="rhombus;whiteSpace=wrap;html=1;fontSize=20;strokeColor=#000000;fillColor=#000000;" vertex="1" parent="X1Mo2VDanx9A2qj2zD5Y-319">
          <mxGeometry x="20" y="20" width="20" height="20" as="geometry" />
        </mxCell>
        <mxCell id="X1Mo2VDanx9A2qj2zD5Y-324" value="" style="group;fillColor=#A6FFF3;strokeColor=#000000;" vertex="1" connectable="0" parent="1">
          <mxGeometry x="602" y="191" width="60" height="60" as="geometry" />
        </mxCell>
        <mxCell id="X1Mo2VDanx9A2qj2zD5Y-325" value="" style="whiteSpace=wrap;html=1;aspect=fixed;fillColor=#FFC875;strokeColor=#FFC875;" vertex="1" parent="X1Mo2VDanx9A2qj2zD5Y-324">
          <mxGeometry width="60" height="60" as="geometry" />
        </mxCell>
        <mxCell id="X1Mo2VDanx9A2qj2zD5Y-326" value="" style="whiteSpace=wrap;html=1;aspect=fixed;strokeColor=#000000;fillColor=#FFFFFF;" vertex="1" parent="X1Mo2VDanx9A2qj2zD5Y-324">
          <mxGeometry x="5" y="5" width="50" height="50" as="geometry" />
        </mxCell>
        <mxCell id="X1Mo2VDanx9A2qj2zD5Y-327" value="" style="ellipse;whiteSpace=wrap;html=1;aspect=fixed;strokeColor=#000000;fillColor=#FFFFFF;" vertex="1" parent="X1Mo2VDanx9A2qj2zD5Y-324">
          <mxGeometry x="10" y="10" width="40" height="40" as="geometry" />
        </mxCell>
        <mxCell id="X1Mo2VDanx9A2qj2zD5Y-647" value="" style="triangle;whiteSpace=wrap;html=1;fontSize=30;strokeColor=#000000;fillColor=#000000;" vertex="1" parent="X1Mo2VDanx9A2qj2zD5Y-324">
          <mxGeometry x="24.5" y="22.5" width="15" height="15" as="geometry" />
        </mxCell>
        <mxCell id="X1Mo2VDanx9A2qj2zD5Y-345" value="" style="group;fillColor=#A6FFF3;strokeColor=#000000;" vertex="1" connectable="0" parent="1">
          <mxGeometry x="441" y="298" width="60" height="60" as="geometry" />
        </mxCell>
        <mxCell id="X1Mo2VDanx9A2qj2zD5Y-346" value="" style="whiteSpace=wrap;html=1;aspect=fixed;fillColor=#8CFFEC;strokeColor=#A6FFF3;" vertex="1" parent="X1Mo2VDanx9A2qj2zD5Y-345">
          <mxGeometry width="60" height="60" as="geometry" />
        </mxCell>
        <mxCell id="X1Mo2VDanx9A2qj2zD5Y-347" value="" style="whiteSpace=wrap;html=1;aspect=fixed;strokeColor=#000000;fillColor=#FFFFFF;" vertex="1" parent="X1Mo2VDanx9A2qj2zD5Y-345">
          <mxGeometry x="5" y="5" width="50" height="50" as="geometry" />
        </mxCell>
        <mxCell id="X1Mo2VDanx9A2qj2zD5Y-348" value="" style="ellipse;whiteSpace=wrap;html=1;aspect=fixed;strokeColor=#000000;fillColor=#FFFFFF;" vertex="1" parent="X1Mo2VDanx9A2qj2zD5Y-345">
          <mxGeometry x="10" y="10" width="40" height="40" as="geometry" />
        </mxCell>
        <mxCell id="X1Mo2VDanx9A2qj2zD5Y-349" value="" style="whiteSpace=wrap;html=1;shape=mxgraph.basic.pentagon;fillColor=#666666;strokeColor=#000000;" vertex="1" parent="X1Mo2VDanx9A2qj2zD5Y-345">
          <mxGeometry x="20" y="20" width="20" height="18" as="geometry" />
        </mxCell>
        <mxCell id="X1Mo2VDanx9A2qj2zD5Y-350" value="&lt;font style=&quot;font-size: 30px&quot;&gt;...&lt;/font&gt;" style="text;html=1;strokeColor=none;fillColor=none;align=center;verticalAlign=middle;whiteSpace=wrap;rounded=0;fontSize=20;" vertex="1" parent="1">
          <mxGeometry x="496" y="309" width="40" height="20" as="geometry" />
        </mxCell>
        <mxCell id="X1Mo2VDanx9A2qj2zD5Y-351" value="" style="group;fillColor=#A6FFF3;strokeColor=#000000;" vertex="1" connectable="0" parent="1">
          <mxGeometry x="530" y="299" width="60" height="60" as="geometry" />
        </mxCell>
        <mxCell id="X1Mo2VDanx9A2qj2zD5Y-352" value="" style="whiteSpace=wrap;html=1;aspect=fixed;fillColor=#8CFFEC;strokeColor=#A6FFF3;" vertex="1" parent="X1Mo2VDanx9A2qj2zD5Y-351">
          <mxGeometry width="60" height="60" as="geometry" />
        </mxCell>
        <mxCell id="X1Mo2VDanx9A2qj2zD5Y-353" value="" style="whiteSpace=wrap;html=1;aspect=fixed;strokeColor=#000000;fillColor=#FFFFFF;" vertex="1" parent="X1Mo2VDanx9A2qj2zD5Y-351">
          <mxGeometry x="5" y="5" width="50" height="50" as="geometry" />
        </mxCell>
        <mxCell id="X1Mo2VDanx9A2qj2zD5Y-354" value="" style="ellipse;whiteSpace=wrap;html=1;aspect=fixed;strokeColor=#000000;fillColor=#FFFFFF;" vertex="1" parent="X1Mo2VDanx9A2qj2zD5Y-351">
          <mxGeometry x="10" y="10" width="40" height="40" as="geometry" />
        </mxCell>
        <mxCell id="X1Mo2VDanx9A2qj2zD5Y-355" value="" style="rhombus;whiteSpace=wrap;html=1;fontSize=20;strokeColor=#000000;fillColor=#000000;" vertex="1" parent="X1Mo2VDanx9A2qj2zD5Y-351">
          <mxGeometry x="20" y="20" width="20" height="20" as="geometry" />
        </mxCell>
        <mxCell id="X1Mo2VDanx9A2qj2zD5Y-361" value="..." style="text;html=1;strokeColor=none;fillColor=none;align=center;verticalAlign=middle;whiteSpace=wrap;rounded=0;fontSize=30;rotation=-90;" vertex="1" parent="1">
          <mxGeometry x="522" y="257" width="60" height="30" as="geometry" />
        </mxCell>
        <mxCell id="X1Mo2VDanx9A2qj2zD5Y-362" value="" style="group;fillColor=#A6FFF3;strokeColor=#000000;" vertex="1" connectable="0" parent="1">
          <mxGeometry x="600" y="298" width="60" height="60" as="geometry" />
        </mxCell>
        <mxCell id="X1Mo2VDanx9A2qj2zD5Y-363" value="" style="whiteSpace=wrap;html=1;aspect=fixed;fillColor=#FFC875;strokeColor=#FFC875;" vertex="1" parent="X1Mo2VDanx9A2qj2zD5Y-362">
          <mxGeometry width="60" height="60" as="geometry" />
        </mxCell>
        <mxCell id="X1Mo2VDanx9A2qj2zD5Y-364" value="" style="whiteSpace=wrap;html=1;aspect=fixed;strokeColor=#000000;fillColor=#FFFFFF;" vertex="1" parent="X1Mo2VDanx9A2qj2zD5Y-362">
          <mxGeometry x="5" y="5" width="50" height="50" as="geometry" />
        </mxCell>
        <mxCell id="X1Mo2VDanx9A2qj2zD5Y-365" value="" style="ellipse;whiteSpace=wrap;html=1;aspect=fixed;strokeColor=#000000;fillColor=#FFFFFF;" vertex="1" parent="X1Mo2VDanx9A2qj2zD5Y-362">
          <mxGeometry x="10" y="10" width="40" height="40" as="geometry" />
        </mxCell>
        <mxCell id="X1Mo2VDanx9A2qj2zD5Y-366" value="" style="ellipse;whiteSpace=wrap;html=1;aspect=fixed;fontSize=30;strokeColor=#000000;fillColor=#FFFFFF;" vertex="1" parent="X1Mo2VDanx9A2qj2zD5Y-362">
          <mxGeometry x="20" y="20" width="20" height="20" as="geometry" />
        </mxCell>
        <mxCell id="X1Mo2VDanx9A2qj2zD5Y-378" value="&lt;font style=&quot;font-size: 20px&quot;&gt;Candidate sequences&lt;/font&gt;" style="text;html=1;strokeColor=none;fillColor=none;align=center;verticalAlign=middle;whiteSpace=wrap;rounded=0;" vertex="1" parent="1">
          <mxGeometry x="460" y="100" width="210" height="30" as="geometry" />
        </mxCell>
        <mxCell id="X1Mo2VDanx9A2qj2zD5Y-379" value="&lt;font style=&quot;font-size: 20px&quot;&gt;(b,8,9,z&lt;sub&gt;fr&lt;/sub&gt;)&lt;/font&gt;" style="text;html=1;strokeColor=none;fillColor=none;align=center;verticalAlign=middle;whiteSpace=wrap;rounded=0;fontSize=15;" vertex="1" parent="1">
          <mxGeometry x="520" y="380" width="60" height="30" as="geometry" />
        </mxCell>
        <mxCell id="X1Mo2VDanx9A2qj2zD5Y-380" value="" style="endArrow=classic;html=1;rounded=0;fontSize=20;" edge="1" parent="1">
          <mxGeometry width="50" height="50" relative="1" as="geometry">
            <mxPoint x="679" y="261" as="sourcePoint" />
            <mxPoint x="734" y="261" as="targetPoint" />
          </mxGeometry>
        </mxCell>
        <mxCell id="X1Mo2VDanx9A2qj2zD5Y-381" value="" style="rounded=0;whiteSpace=wrap;html=1;fontSize=30;strokeColor=#000000;fillColor=#BABABA;rotation=90;" vertex="1" parent="1">
          <mxGeometry x="728.75" y="242.25" width="170" height="60" as="geometry" />
        </mxCell>
        <mxCell id="X1Mo2VDanx9A2qj2zD5Y-382" value="&lt;font style=&quot;font-size: 20px&quot;&gt;Encoder sequences&lt;/font&gt;" style="text;html=1;strokeColor=none;fillColor=none;align=center;verticalAlign=middle;whiteSpace=wrap;rounded=0;" vertex="1" parent="1">
          <mxGeometry x="710" y="100" width="210" height="30" as="geometry" />
        </mxCell>
        <mxCell id="X1Mo2VDanx9A2qj2zD5Y-383" value="&lt;font style=&quot;font-size: 20px&quot;&gt;(b*8,9,z&lt;sub&gt;fr&lt;/sub&gt;)&lt;/font&gt;" style="text;html=1;strokeColor=none;fillColor=none;align=center;verticalAlign=middle;whiteSpace=wrap;rounded=0;fontSize=15;" vertex="1" parent="1">
          <mxGeometry x="785" y="380" width="60" height="30" as="geometry" />
        </mxCell>
        <mxCell id="X1Mo2VDanx9A2qj2zD5Y-388" value="" style="endArrow=classic;html=1;rounded=0;fontSize=20;" edge="1" parent="1">
          <mxGeometry width="50" height="50" relative="1" as="geometry">
            <mxPoint x="875" y="262.38" as="sourcePoint" />
            <mxPoint x="930" y="262.38" as="targetPoint" />
            <Array as="points">
              <mxPoint x="886" y="262.38" />
            </Array>
          </mxGeometry>
        </mxCell>
        <mxCell id="X1Mo2VDanx9A2qj2zD5Y-389" value="" style="rounded=0;whiteSpace=wrap;html=1;fontSize=30;strokeColor=#000000;fillColor=#BABABA;rotation=90;" vertex="1" parent="1">
          <mxGeometry x="890" y="263.75" width="170" height="23.25" as="geometry" />
        </mxCell>
        <mxCell id="X1Mo2VDanx9A2qj2zD5Y-390" value="&lt;font style=&quot;font-size: 20px&quot;&gt;FC layers&lt;/font&gt;" style="text;html=1;strokeColor=none;fillColor=none;align=center;verticalAlign=middle;whiteSpace=wrap;rounded=0;" vertex="1" parent="1">
          <mxGeometry x="890" y="100" width="210" height="30" as="geometry" />
        </mxCell>
        <mxCell id="X1Mo2VDanx9A2qj2zD5Y-391" value="&lt;font style=&quot;font-size: 20px&quot;&gt;(b*8,9,z&lt;sub&gt;fr&lt;/sub&gt;)&lt;/font&gt;" style="text;html=1;strokeColor=none;fillColor=none;align=center;verticalAlign=middle;whiteSpace=wrap;rounded=0;fontSize=15;" vertex="1" parent="1">
          <mxGeometry x="980" y="380" width="60" height="30" as="geometry" />
        </mxCell>
        <mxCell id="X1Mo2VDanx9A2qj2zD5Y-393" value="" style="rounded=0;whiteSpace=wrap;html=1;fontSize=30;strokeColor=#000000;fillColor=#BABABA;rotation=90;" vertex="1" parent="1">
          <mxGeometry x="940.0049999999999" y="263.3750000000001" width="170" height="23.25" as="geometry" />
        </mxCell>
        <mxCell id="X1Mo2VDanx9A2qj2zD5Y-396" value="" style="endArrow=none;dashed=1;html=1;rounded=0;fontSize=30;entryX=0;entryY=1;entryDx=0;entryDy=0;exitX=0;exitY=0;exitDx=0;exitDy=0;" edge="1" parent="1" source="X1Mo2VDanx9A2qj2zD5Y-389" target="X1Mo2VDanx9A2qj2zD5Y-393">
          <mxGeometry width="50" height="50" relative="1" as="geometry">
            <mxPoint x="780" y="260" as="sourcePoint" />
            <mxPoint x="830" y="210" as="targetPoint" />
          </mxGeometry>
        </mxCell>
        <mxCell id="X1Mo2VDanx9A2qj2zD5Y-397" value="" style="endArrow=none;dashed=1;html=1;rounded=0;fontSize=30;entryX=1;entryY=1;entryDx=0;entryDy=0;exitX=1;exitY=0;exitDx=0;exitDy=0;" edge="1" parent="1" source="X1Mo2VDanx9A2qj2zD5Y-389" target="X1Mo2VDanx9A2qj2zD5Y-393">
          <mxGeometry width="50" height="50" relative="1" as="geometry">
            <mxPoint x="780" y="260" as="sourcePoint" />
            <mxPoint x="830" y="210" as="targetPoint" />
          </mxGeometry>
        </mxCell>
        <mxCell id="X1Mo2VDanx9A2qj2zD5Y-427" value="" style="rounded=0;whiteSpace=wrap;html=1;fontSize=30;strokeColor=#000000;fillColor=#BABABA;rotation=90;" vertex="1" parent="1">
          <mxGeometry x="1083.5" y="282.5" width="50" height="5" as="geometry" />
        </mxCell>
        <mxCell id="X1Mo2VDanx9A2qj2zD5Y-428" value="" style="rounded=0;whiteSpace=wrap;html=1;fontSize=30;strokeColor=#000000;fillColor=#BABABA;rotation=90;" vertex="1" parent="1">
          <mxGeometry x="1088.5" y="292.5" width="30" height="5" as="geometry" />
        </mxCell>
        <mxCell id="X1Mo2VDanx9A2qj2zD5Y-429" value="" style="rounded=0;whiteSpace=wrap;html=1;fontSize=30;strokeColor=#000000;fillColor=#BABABA;rotation=90;" vertex="1" parent="1">
          <mxGeometry x="1104.5" y="297.5" width="20" height="5" as="geometry" />
        </mxCell>
        <mxCell id="X1Mo2VDanx9A2qj2zD5Y-430" value="" style="rounded=0;whiteSpace=wrap;html=1;fontSize=30;strokeColor=#000000;fillColor=#BABABA;rotation=90;" vertex="1" parent="1">
          <mxGeometry x="1100.5" y="287.5" width="40" height="5" as="geometry" />
        </mxCell>
        <mxCell id="X1Mo2VDanx9A2qj2zD5Y-431" value="" style="rounded=0;whiteSpace=wrap;html=1;fontSize=30;strokeColor=#000000;fillColor=#BABABA;rotation=90;" vertex="1" parent="1">
          <mxGeometry x="1101.5" y="282.5" width="50" height="5" as="geometry" />
        </mxCell>
        <mxCell id="X1Mo2VDanx9A2qj2zD5Y-432" value="" style="rounded=0;whiteSpace=wrap;html=1;fontSize=30;strokeColor=#000000;fillColor=#BABABA;rotation=90;" vertex="1" parent="1">
          <mxGeometry x="1121.5" y="297.5" width="20" height="5" as="geometry" />
        </mxCell>
        <mxCell id="X1Mo2VDanx9A2qj2zD5Y-433" value="" style="rounded=0;whiteSpace=wrap;html=1;fontSize=30;strokeColor=#000000;fillColor=#BABABA;rotation=90;" vertex="1" parent="1">
          <mxGeometry x="1122.5" y="292.5" width="30" height="5" as="geometry" />
        </mxCell>
        <mxCell id="X1Mo2VDanx9A2qj2zD5Y-434" value="" style="rounded=0;whiteSpace=wrap;html=1;fontSize=30;strokeColor=#000000;fillColor=#BABABA;rotation=90;" vertex="1" parent="1">
          <mxGeometry x="1132.5" y="297.5" width="20" height="5" as="geometry" />
        </mxCell>
        <mxCell id="X1Mo2VDanx9A2qj2zD5Y-436" value="" style="endArrow=none;dashed=1;html=1;rounded=0;fontSize=30;exitX=1;exitY=0;exitDx=0;exitDy=0;" edge="1" parent="1" source="X1Mo2VDanx9A2qj2zD5Y-393">
          <mxGeometry width="50" height="50" relative="1" as="geometry">
            <mxPoint x="1130" y="380" as="sourcePoint" />
            <mxPoint x="1100" y="310" as="targetPoint" />
          </mxGeometry>
        </mxCell>
        <mxCell id="X1Mo2VDanx9A2qj2zD5Y-437" value="" style="endArrow=none;dashed=1;html=1;rounded=0;fontSize=30;exitX=0;exitY=0;exitDx=0;exitDy=0;entryX=0;entryY=1;entryDx=0;entryDy=0;" edge="1" parent="1" source="X1Mo2VDanx9A2qj2zD5Y-393" target="X1Mo2VDanx9A2qj2zD5Y-427">
          <mxGeometry width="50" height="50" relative="1" as="geometry">
            <mxPoint x="1130" y="380" as="sourcePoint" />
            <mxPoint x="1100" y="260" as="targetPoint" />
          </mxGeometry>
        </mxCell>
        <mxCell id="X1Mo2VDanx9A2qj2zD5Y-438" value="&lt;font style=&quot;font-size: 20px&quot;&gt;Softmax&lt;/font&gt;" style="text;html=1;strokeColor=none;fillColor=none;align=center;verticalAlign=middle;whiteSpace=wrap;rounded=0;" vertex="1" parent="1">
          <mxGeometry x="1009.5" y="100" width="210" height="30" as="geometry" />
        </mxCell>
        <mxCell id="X1Mo2VDanx9A2qj2zD5Y-439" value="&lt;font style=&quot;font-size: 20px&quot;&gt;(b,8)&lt;/font&gt;" style="text;html=1;strokeColor=none;fillColor=none;align=center;verticalAlign=middle;whiteSpace=wrap;rounded=0;fontSize=15;" vertex="1" parent="1">
          <mxGeometry x="1100" y="380" width="60" height="30" as="geometry" />
        </mxCell>
        <mxCell id="X1Mo2VDanx9A2qj2zD5Y-665" value="" style="group;fillColor=#A6FFF3;strokeColor=#000000;" vertex="1" connectable="0" parent="1">
          <mxGeometry x="400" y="800" width="60" height="60" as="geometry" />
        </mxCell>
        <mxCell id="X1Mo2VDanx9A2qj2zD5Y-666" value="" style="whiteSpace=wrap;html=1;aspect=fixed;fillColor=#8CFFEC;strokeColor=#A6FFF3;" vertex="1" parent="X1Mo2VDanx9A2qj2zD5Y-665">
          <mxGeometry width="60" height="60" as="geometry" />
        </mxCell>
        <mxCell id="X1Mo2VDanx9A2qj2zD5Y-667" value="" style="whiteSpace=wrap;html=1;aspect=fixed;strokeColor=#000000;fillColor=#FFFFFF;" vertex="1" parent="X1Mo2VDanx9A2qj2zD5Y-665">
          <mxGeometry x="5" y="4" width="50" height="50" as="geometry" />
        </mxCell>
        <mxCell id="X1Mo2VDanx9A2qj2zD5Y-668" value="" style="ellipse;whiteSpace=wrap;html=1;aspect=fixed;strokeColor=#000000;fillColor=#FFFFFF;" vertex="1" parent="X1Mo2VDanx9A2qj2zD5Y-665">
          <mxGeometry x="10" y="9" width="40" height="40" as="geometry" />
        </mxCell>
        <mxCell id="X1Mo2VDanx9A2qj2zD5Y-669" value="" style="whiteSpace=wrap;html=1;shape=mxgraph.basic.pentagon;fillColor=#000000;strokeColor=#000000;" vertex="1" parent="X1Mo2VDanx9A2qj2zD5Y-665">
          <mxGeometry x="20" y="19" width="20" height="18" as="geometry" />
        </mxCell>
        <mxCell id="X1Mo2VDanx9A2qj2zD5Y-671" value="" style="group;fillColor=#A6FFF3;strokeColor=#000000;" vertex="1" connectable="0" parent="1">
          <mxGeometry x="461" y="800" width="60" height="60" as="geometry" />
        </mxCell>
        <mxCell id="X1Mo2VDanx9A2qj2zD5Y-672" value="" style="whiteSpace=wrap;html=1;aspect=fixed;fillColor=#8CFFEC;strokeColor=#A6FFF3;" vertex="1" parent="X1Mo2VDanx9A2qj2zD5Y-671">
          <mxGeometry width="60" height="60" as="geometry" />
        </mxCell>
        <mxCell id="X1Mo2VDanx9A2qj2zD5Y-673" value="" style="whiteSpace=wrap;html=1;aspect=fixed;strokeColor=#000000;fillColor=#FFFFFF;" vertex="1" parent="X1Mo2VDanx9A2qj2zD5Y-671">
          <mxGeometry x="5" y="5" width="50" height="50" as="geometry" />
        </mxCell>
        <mxCell id="X1Mo2VDanx9A2qj2zD5Y-674" value="" style="ellipse;whiteSpace=wrap;html=1;aspect=fixed;strokeColor=#000000;fillColor=#FFFFFF;" vertex="1" parent="X1Mo2VDanx9A2qj2zD5Y-671">
          <mxGeometry x="10" y="10" width="40" height="40" as="geometry" />
        </mxCell>
        <mxCell id="X1Mo2VDanx9A2qj2zD5Y-675" value="" style="rhombus;whiteSpace=wrap;html=1;fontSize=20;strokeColor=#000000;fillColor=#000000;" vertex="1" parent="X1Mo2VDanx9A2qj2zD5Y-671">
          <mxGeometry x="20" y="20" width="20" height="20" as="geometry" />
        </mxCell>
        <mxCell id="X1Mo2VDanx9A2qj2zD5Y-676" value="" style="group;fillColor=#A6FFF3;strokeColor=#000000;" vertex="1" connectable="0" parent="1">
          <mxGeometry x="522" y="800" width="60" height="60" as="geometry" />
        </mxCell>
        <mxCell id="X1Mo2VDanx9A2qj2zD5Y-677" value="" style="whiteSpace=wrap;html=1;aspect=fixed;fillColor=#FFC875;strokeColor=#FFC875;" vertex="1" parent="X1Mo2VDanx9A2qj2zD5Y-676">
          <mxGeometry width="60" height="60" as="geometry" />
        </mxCell>
        <mxCell id="X1Mo2VDanx9A2qj2zD5Y-678" value="" style="whiteSpace=wrap;html=1;aspect=fixed;strokeColor=#000000;fillColor=#FFFFFF;" vertex="1" parent="X1Mo2VDanx9A2qj2zD5Y-676">
          <mxGeometry x="5" y="5" width="50" height="50" as="geometry" />
        </mxCell>
        <mxCell id="X1Mo2VDanx9A2qj2zD5Y-679" value="" style="ellipse;whiteSpace=wrap;html=1;aspect=fixed;strokeColor=#000000;fillColor=#FFFFFF;" vertex="1" parent="X1Mo2VDanx9A2qj2zD5Y-676">
          <mxGeometry x="10" y="10" width="40" height="40" as="geometry" />
        </mxCell>
        <mxCell id="X1Mo2VDanx9A2qj2zD5Y-680" value="" style="triangle;whiteSpace=wrap;html=1;fontSize=30;strokeColor=#000000;fillColor=#000000;" vertex="1" parent="X1Mo2VDanx9A2qj2zD5Y-676">
          <mxGeometry x="24.5" y="22.5" width="15" height="15" as="geometry" />
        </mxCell>
        <mxCell id="X1Mo2VDanx9A2qj2zD5Y-696" value="" style="group;fillColor=#A6FFF3;strokeColor=#000000;" vertex="1" connectable="0" parent="1">
          <mxGeometry x="400" y="739" width="60" height="60" as="geometry" />
        </mxCell>
        <mxCell id="X1Mo2VDanx9A2qj2zD5Y-697" value="" style="whiteSpace=wrap;html=1;aspect=fixed;fillColor=#8CFFEC;strokeColor=#A6FFF3;" vertex="1" parent="X1Mo2VDanx9A2qj2zD5Y-696">
          <mxGeometry width="60" height="60" as="geometry" />
        </mxCell>
        <mxCell id="X1Mo2VDanx9A2qj2zD5Y-698" value="" style="whiteSpace=wrap;html=1;aspect=fixed;strokeColor=#000000;fillColor=#FFFFFF;" vertex="1" parent="X1Mo2VDanx9A2qj2zD5Y-696">
          <mxGeometry x="5" y="5" width="50" height="50" as="geometry" />
        </mxCell>
        <mxCell id="X1Mo2VDanx9A2qj2zD5Y-699" value="" style="ellipse;whiteSpace=wrap;html=1;aspect=fixed;strokeColor=#000000;fillColor=#FFFFFF;" vertex="1" parent="X1Mo2VDanx9A2qj2zD5Y-696">
          <mxGeometry x="10" y="10" width="40" height="40" as="geometry" />
        </mxCell>
        <mxCell id="X1Mo2VDanx9A2qj2zD5Y-700" value="" style="whiteSpace=wrap;html=1;shape=mxgraph.basic.pentagon;fillColor=#444444;strokeColor=#000000;" vertex="1" parent="X1Mo2VDanx9A2qj2zD5Y-696">
          <mxGeometry x="20" y="20" width="20" height="18" as="geometry" />
        </mxCell>
        <mxCell id="X1Mo2VDanx9A2qj2zD5Y-701" value="" style="group;fillColor=#A6FFF3;strokeColor=#000000;" vertex="1" connectable="0" parent="1">
          <mxGeometry x="461" y="739" width="60" height="60" as="geometry" />
        </mxCell>
        <mxCell id="X1Mo2VDanx9A2qj2zD5Y-702" value="" style="whiteSpace=wrap;html=1;aspect=fixed;fillColor=#8CFFEC;strokeColor=#A6FFF3;" vertex="1" parent="X1Mo2VDanx9A2qj2zD5Y-701">
          <mxGeometry width="60" height="60" as="geometry" />
        </mxCell>
        <mxCell id="X1Mo2VDanx9A2qj2zD5Y-703" value="" style="whiteSpace=wrap;html=1;aspect=fixed;strokeColor=#000000;fillColor=#FFFFFF;" vertex="1" parent="X1Mo2VDanx9A2qj2zD5Y-701">
          <mxGeometry x="5" y="5" width="50" height="50" as="geometry" />
        </mxCell>
        <mxCell id="X1Mo2VDanx9A2qj2zD5Y-704" value="" style="ellipse;whiteSpace=wrap;html=1;aspect=fixed;strokeColor=#000000;fillColor=#FFFFFF;" vertex="1" parent="X1Mo2VDanx9A2qj2zD5Y-701">
          <mxGeometry x="10" y="10" width="40" height="40" as="geometry" />
        </mxCell>
        <mxCell id="X1Mo2VDanx9A2qj2zD5Y-705" value="" style="rhombus;whiteSpace=wrap;html=1;fontSize=20;strokeColor=#000000;fillColor=#444444;" vertex="1" parent="X1Mo2VDanx9A2qj2zD5Y-701">
          <mxGeometry x="20" y="20" width="20" height="20" as="geometry" />
        </mxCell>
        <mxCell id="X1Mo2VDanx9A2qj2zD5Y-706" value="" style="group;fillColor=#A6FFF3;strokeColor=#000000;" vertex="1" connectable="0" parent="1">
          <mxGeometry x="522" y="739" width="60" height="60" as="geometry" />
        </mxCell>
        <mxCell id="X1Mo2VDanx9A2qj2zD5Y-707" value="" style="whiteSpace=wrap;html=1;aspect=fixed;fillColor=#A6FFF3;strokeColor=#A6FFF3;" vertex="1" parent="X1Mo2VDanx9A2qj2zD5Y-706">
          <mxGeometry width="60" height="60" as="geometry" />
        </mxCell>
        <mxCell id="X1Mo2VDanx9A2qj2zD5Y-708" value="" style="whiteSpace=wrap;html=1;aspect=fixed;strokeColor=#000000;fillColor=#FFFFFF;" vertex="1" parent="X1Mo2VDanx9A2qj2zD5Y-706">
          <mxGeometry x="5" y="5" width="50" height="50" as="geometry" />
        </mxCell>
        <mxCell id="X1Mo2VDanx9A2qj2zD5Y-709" value="" style="ellipse;whiteSpace=wrap;html=1;aspect=fixed;strokeColor=#000000;fillColor=#FFFFFF;" vertex="1" parent="X1Mo2VDanx9A2qj2zD5Y-706">
          <mxGeometry x="10" y="10" width="40" height="40" as="geometry" />
        </mxCell>
        <mxCell id="X1Mo2VDanx9A2qj2zD5Y-710" value="" style="triangle;whiteSpace=wrap;html=1;fontSize=30;strokeColor=#000000;fillColor=#444444;" vertex="1" parent="X1Mo2VDanx9A2qj2zD5Y-706">
          <mxGeometry x="24.5" y="22.5" width="15" height="15" as="geometry" />
        </mxCell>
        <mxCell id="X1Mo2VDanx9A2qj2zD5Y-720" value="" style="group;fillColor=#A6FFF3;strokeColor=#000000;" vertex="1" connectable="0" parent="1">
          <mxGeometry x="400" y="678" width="60" height="60" as="geometry" />
        </mxCell>
        <mxCell id="X1Mo2VDanx9A2qj2zD5Y-721" value="" style="whiteSpace=wrap;html=1;aspect=fixed;fillColor=#8CFFEC;strokeColor=#A6FFF3;" vertex="1" parent="X1Mo2VDanx9A2qj2zD5Y-720">
          <mxGeometry width="60" height="60" as="geometry" />
        </mxCell>
        <mxCell id="X1Mo2VDanx9A2qj2zD5Y-722" value="" style="whiteSpace=wrap;html=1;aspect=fixed;strokeColor=#000000;fillColor=#FFFFFF;" vertex="1" parent="X1Mo2VDanx9A2qj2zD5Y-720">
          <mxGeometry x="5" y="5" width="50" height="50" as="geometry" />
        </mxCell>
        <mxCell id="X1Mo2VDanx9A2qj2zD5Y-723" value="" style="ellipse;whiteSpace=wrap;html=1;aspect=fixed;strokeColor=#000000;fillColor=#FFFFFF;" vertex="1" parent="X1Mo2VDanx9A2qj2zD5Y-720">
          <mxGeometry x="10" y="10" width="40" height="40" as="geometry" />
        </mxCell>
        <mxCell id="X1Mo2VDanx9A2qj2zD5Y-724" value="" style="whiteSpace=wrap;html=1;shape=mxgraph.basic.pentagon;fillColor=#666666;strokeColor=#000000;" vertex="1" parent="X1Mo2VDanx9A2qj2zD5Y-720">
          <mxGeometry x="20" y="20" width="20" height="18" as="geometry" />
        </mxCell>
        <mxCell id="X1Mo2VDanx9A2qj2zD5Y-725" value="" style="group;fillColor=#A6FFF3;strokeColor=#000000;" vertex="1" connectable="0" parent="1">
          <mxGeometry x="461" y="678" width="60" height="60" as="geometry" />
        </mxCell>
        <mxCell id="X1Mo2VDanx9A2qj2zD5Y-726" value="" style="whiteSpace=wrap;html=1;aspect=fixed;fillColor=#8CFFEC;strokeColor=#A6FFF3;" vertex="1" parent="X1Mo2VDanx9A2qj2zD5Y-725">
          <mxGeometry width="60" height="60" as="geometry" />
        </mxCell>
        <mxCell id="X1Mo2VDanx9A2qj2zD5Y-727" value="" style="whiteSpace=wrap;html=1;aspect=fixed;strokeColor=#000000;fillColor=#FFFFFF;" vertex="1" parent="X1Mo2VDanx9A2qj2zD5Y-725">
          <mxGeometry x="5" y="5" width="50" height="50" as="geometry" />
        </mxCell>
        <mxCell id="X1Mo2VDanx9A2qj2zD5Y-728" value="" style="ellipse;whiteSpace=wrap;html=1;aspect=fixed;strokeColor=#000000;fillColor=#FFFFFF;" vertex="1" parent="X1Mo2VDanx9A2qj2zD5Y-725">
          <mxGeometry x="10" y="10" width="40" height="40" as="geometry" />
        </mxCell>
        <mxCell id="X1Mo2VDanx9A2qj2zD5Y-729" value="" style="rhombus;whiteSpace=wrap;html=1;fontSize=20;strokeColor=#000000;fillColor=#666666;" vertex="1" parent="X1Mo2VDanx9A2qj2zD5Y-725">
          <mxGeometry x="20" y="20" width="20" height="20" as="geometry" />
        </mxCell>
        <mxCell id="X1Mo2VDanx9A2qj2zD5Y-730" value="" style="group;fillColor=#A6FFF3;strokeColor=#000000;" vertex="1" connectable="0" parent="1">
          <mxGeometry x="522" y="678" width="60" height="60" as="geometry" />
        </mxCell>
        <mxCell id="X1Mo2VDanx9A2qj2zD5Y-731" value="" style="whiteSpace=wrap;html=1;aspect=fixed;fillColor=#A6FFF3;strokeColor=#A6FFF3;" vertex="1" parent="X1Mo2VDanx9A2qj2zD5Y-730">
          <mxGeometry width="60" height="60" as="geometry" />
        </mxCell>
        <mxCell id="X1Mo2VDanx9A2qj2zD5Y-732" value="" style="whiteSpace=wrap;html=1;aspect=fixed;strokeColor=#000000;fillColor=#FFFFFF;" vertex="1" parent="X1Mo2VDanx9A2qj2zD5Y-730">
          <mxGeometry x="5" y="5" width="50" height="50" as="geometry" />
        </mxCell>
        <mxCell id="X1Mo2VDanx9A2qj2zD5Y-733" value="" style="ellipse;whiteSpace=wrap;html=1;aspect=fixed;strokeColor=#000000;fillColor=#FFFFFF;" vertex="1" parent="X1Mo2VDanx9A2qj2zD5Y-730">
          <mxGeometry x="10" y="10" width="40" height="40" as="geometry" />
        </mxCell>
        <mxCell id="X1Mo2VDanx9A2qj2zD5Y-734" value="" style="triangle;whiteSpace=wrap;html=1;fontSize=30;strokeColor=#000000;fillColor=#666666;" vertex="1" parent="X1Mo2VDanx9A2qj2zD5Y-730">
          <mxGeometry x="24.5" y="22.5" width="15" height="15" as="geometry" />
        </mxCell>
      </root>
    </mxGraphModel>
  </diagram>
</mxfile>
